<svg width="194" height="163" viewBox="0 0 194 163" fill="none" xmlns="http://www.w3.org/2000/svg">
<g clip-path="url(#clip0_666_7904)">
<path d="M6.77511 55.3781C20.3335 13.405 65.4388 -9.65716 107.514 3.87126C149.593 17.3997 172.709 62.3874 159.15 104.36C145.588 146.334 111.919 172.983 69.844 159.458C27.765 145.93 -6.78743 97.3471 6.77511 55.3781Z" fill="#CFD4DE"/>
<path d="M6.35394 60.6124C7.24985 50.8439 10.5073 41.5614 18.6036 35.4911C26.0929 29.8779 36.0759 28.523 45.1589 28.1977C71.1238 27.2629 96.7502 37.472 122.397 29.4785C141.934 23.3876 173.786 2.03451 187.415 28.7084C192.58 38.8186 192.571 53.5578 188.117 63.8699C183.447 74.6844 172.341 81.0389 161.243 83.3574C159.485 83.724 160.232 86.4049 161.982 86.0384C172.676 83.8022 182.147 78.2961 188.356 69.1989C194.962 59.521 194.921 46.0256 192.514 35.0175C190.193 24.4048 182.427 14.4592 171.057 13.1126C157.519 11.5065 144.543 17.6179 132.393 22.7204C126.27 25.2902 120.081 27.5429 113.57 28.9184C105.102 30.7057 96.519 29.9891 87.981 29.2643C72.3335 27.9382 56.7273 24.5654 40.9766 25.6403C31.6789 26.2745 22.468 28.7495 15.1479 34.6922C7.37784 41.0013 4.44651 51.0539 3.56711 60.6165C3.40197 62.4038 6.18879 62.3873 6.35394 60.6165V60.6124Z" fill="#0077C0"/>
<path d="M85.3594 55.7692L85.3841 49.9872L90.1114 48.8218L90.5119 50.3249L87.6384 51.5563L87.3081 53.7801L105.507 55.4151L105.833 53.1912L103.203 51.3586L103.641 49.769L107.633 52.2152L107.406 57.9643L85.3594 55.7692Z" fill="#E7ECF7"/>
<path d="M93.2407 55.6868L93.7485 52.248L99.9745 53.5741L99.5575 56.4034L93.2407 55.6868Z" fill="#E7ECF7"/>
<path d="M29.7964 42.5331L30.5891 37.1382L38.7018 38.3284L37.9463 43.4514L29.7964 42.5331Z" fill="#333333"/>
<path d="M23.5537 47.4007L24.6272 40.1196L71.0081 47.7425L70.2113 53.1374L23.5537 47.4007Z" fill="#E7ECF7"/>
<path d="M132.075 64.4053L132.909 58.7427L157.701 62.9227L156.946 68.0499L132.075 64.4053Z" fill="#E7ECF7"/>
<path d="M135.332 61.024L135.906 53.397L157.111 55.6744L155.339 63.9561L135.332 61.024Z" fill="#E7ECF7"/>
<path d="M13.4798 44.5469L3.21605 122.868L1.82471 131.491L149.749 152.157L150.996 144.925L164.373 66.3818L13.4798 44.5469Z" fill="#EFF4FF"/>
<path d="M116.794 78.1435L119.21 63.6226L148.444 67.6296L146.611 81.9611L116.794 78.1435Z" fill="#333333"/>
<path d="M119.627 75.8046L121.216 66.5674L145.662 69.9773L144.547 79.1033L119.627 75.8046Z" fill="#111111"/>
<path d="M77.5562 72.5385L86.1974 59.7432L111.118 62.9307L110.387 76.5744L77.5562 72.5385Z" fill="#262626"/>
<path d="M98.5336 61.3247L111.118 62.9308L110.387 76.5746L96.0688 74.8161L98.5336 61.3247Z" fill="#333333"/>
<path d="M5.3176 56.8521C2.55142 57.3421 0.421052 58.2317 0.0494759 60.7644C-0.3221 63.2971 1.5812 65.0844 3.96754 66.0234C5.92451 66.7894 10.9078 68.3502 10.9078 68.3502L12.6996 56.6626C12.6996 56.6626 7.13833 56.5308 5.3176 56.8562V56.8521ZM4.3226 63.3712C3.19549 63.2065 2.41105 62.1605 2.58032 61.0321C2.74547 59.9037 3.58358 59.1459 4.71482 59.3107C5.84194 59.4754 6.83694 60.5049 6.67179 61.6292C6.50665 62.7576 5.45798 63.536 4.32673 63.3712H4.3226Z" fill="#E7ECF7"/>
<path d="M164.513 89.5756C167.28 89.0855 169.41 88.1959 169.781 85.6673C170.153 83.1346 168.25 81.3473 165.863 80.4083C163.906 79.6382 158.923 78.0815 158.923 78.0815L157.131 89.7691C157.131 89.7691 162.697 89.8968 164.513 89.5756ZM165.504 83.0605C166.635 83.2252 167.416 84.2713 167.251 85.3997C167.085 86.5281 166.247 87.2817 165.116 87.117C163.989 86.9522 162.994 85.9268 163.159 84.7984C163.324 83.6741 164.377 82.8916 165.504 83.0605Z" fill="#E7ECF7"/>
<path d="M9.99138 71.1753L3.21631 122.867L150.996 144.925L159.885 92.7261L9.99138 71.1753Z" fill="#0077C0"/>
<path d="M128.706 103.236C128.375 105.468 126.295 107.013 124.057 106.687C121.815 106.358 120.267 104.282 120.597 102.05C120.927 99.8139 122.575 98.4137 124.812 98.7432C127.054 99.0726 129.036 101.004 128.706 103.24V103.236Z" fill="white"/>
<path d="M125.06 105.456C123.553 105.653 122.17 104.595 121.976 103.092C121.778 101.589 122.839 100.213 124.346 100.015C125.853 99.8177 127.062 100.621 127.256 102.124C127.455 103.627 126.567 105.258 125.06 105.456Z" fill="#333333"/>
<path d="M37.525 78.2012L36.5713 84.675L48.1438 86.2647L48.8209 79.5478L37.525 78.2012Z" fill="white"/>
<path d="M105.619 79.9513C119.47 92.2854 120.156 114.194 107.79 128.011C95.425 141.828 72.9364 142.709 59.0849 130.379C45.2334 118.045 44.0608 93.9986 56.4219 80.1819C68.783 66.3652 91.763 67.6213 105.615 79.9513H105.619Z" fill="white"/>
<path d="M101.263 83.3528C113.649 94.3773 115.837 113.618 104.78 125.973C93.7239 138.327 73.6175 139.114 61.2358 128.085C48.8499 117.061 47.1737 96.2388 58.226 83.8882C69.2784 71.5376 88.8811 72.3242 101.263 83.3528Z" fill="#333333"/>
<path d="M101.453 108.264C99.8303 119.285 89.5583 126.912 78.506 125.289C67.4578 123.671 59.8157 113.424 61.4424 102.4C63.0649 91.3794 74.9595 83.9954 86.0077 85.6139C97.0559 87.2324 103.075 97.2438 101.453 108.26V108.264Z" fill="#1A1A1A"/>
<path d="M77.9776 129.07C77.3459 128.975 76.7143 128.855 76.0908 128.715C63.6017 125.87 55.3527 111.575 58.4327 98.1251C61.0998 86.4869 71.8301 79.6589 84.5339 81.5203C85.2894 81.6315 86.0532 81.7757 86.8046 81.9486C93.0636 83.3777 98.3937 87.15 101.812 92.5737C105.231 98.0015 106.321 104.426 104.888 110.673C102.114 122.793 90.2933 130.869 77.9776 129.065V129.07ZM84.41 82.3357C72.1521 80.5402 61.7934 87.1088 59.2295 98.3104C56.2445 111.336 64.2086 125.17 76.2684 127.916C76.8711 128.056 77.4863 128.172 78.0932 128.262C89.9878 130.004 101.403 122.2 104.087 110.496C105.47 104.463 104.413 98.2527 101.114 93.0143C97.8157 87.7718 92.6673 84.1272 86.6188 82.7476C85.8881 82.5828 85.1408 82.4428 84.41 82.3357Z" fill="#1A1A1A"/>
<path opacity="0.3" d="M60.794 106.728C55.9098 103.339 55.8314 95.0406 60.6165 88.1878C65.3974 81.3309 73.2294 78.5223 78.1094 81.9075C82.9936 85.2927 82.1803 94.8676 77.3993 101.729C72.6225 108.581 65.6781 110.117 60.7981 106.732L60.794 106.728Z" fill="white"/>
<path opacity="0.3" d="M91.5443 126.154C89.6369 124.832 89.1786 122.2 90.5245 120.273C91.8705 118.346 94.5045 117.856 96.4161 119.178C98.3235 120.5 98.5299 123.489 97.184 125.417C95.8381 127.344 93.4517 127.476 91.5443 126.154Z" fill="white"/>
<path opacity="0.3" d="M123.726 72.2216C122.921 71.6657 122.731 70.562 123.297 69.7466C123.863 68.9353 124.973 68.7253 125.774 69.2853C126.575 69.8413 126.662 71.0974 126.1 71.9087C125.535 72.7199 124.531 72.7735 123.726 72.2175V72.2216Z" fill="white"/>
</g>
<defs>
<clipPath id="clip0_666_7904">
<rect width="194" height="163" fill="white"/>
</clipPath>
</defs>
</svg>
